<svg id="Layer_1" enable-background="new 0 0 512 512" height="512" viewBox="0 0 512 512" width="512" xmlns="http://www.w3.org/2000/svg"><path d="m34.5 412.998c4.142 0 7.5-3.358 7.5-7.5v-384.998c0-3.033 2.467-5.5 5.5-5.5h94.574c4.142 0 7.5-3.358 7.5-7.5s-3.358-7.5-7.5-7.5h-94.574c-11.304 0-20.5 9.196-20.5 20.5v384.998c0 4.142 3.358 7.5 7.5 7.5z"/><path d="m389.841 129.959-62.841 62.841v-78.45c0-3.317-.815-6.615-2.329-9.486-2.185-4.225 4.957 3.698-96.692-98.792-3.793-3.828-9.007-6.072-14.559-6.072h-41.346c-4.142 0-7.5 3.358-7.5 7.5s3.358 7.5 7.5 7.5h39.426v85.82c0 8.266 6.725 14.99 14.99 14.99h85.51v91.99l-35.712 35.712c-2.929 2.929-2.929 7.678 0 10.606 2.929 2.929 7.678 2.929 10.606 0l88.048-88.048 9.772 9.772-137.4 137.4-18.811-.733 37.178-37.179c2.929-2.929 2.929-7.678 0-10.606-2.929-2.929-7.678-2.929-10.606 0-54.588 54.588-51.222 50.832-52.039 52.951l-38.75 100.579c-3.912 10.109 6.044 19.973 16.082 16.097 108.795-41.916 101.57-38.822 103.197-40.45l28.435-28.436v126.035c0 3.033-2.467 5.5-5.5 5.5h-259c-3.033 0-5.5-2.467-5.5-5.5v-56.002c0-4.142-3.358-7.5-7.5-7.5s-7.5 3.358-7.5 7.5v56.002c0 11.304 9.196 20.5 20.5 20.5h259c11.304 0 20.5-9.196 20.5-20.5v-141.035l141.673-141.673c10.529-10.528 16.327-24.526 16.327-39.416 0-49.169-59.893-74.683-95.159-39.417zm-163.341-29.139v-74.937c8.704 8.776 62.338 62.854 74.315 74.929zm-46.151 317.464 12.808-33.245 20.437 20.437zm48.558-18.708-29.85-29.85 16.455-42.71 27.524 1.073.518 19.694c.105 3.988 3.313 7.196 7.301 7.3l19.747.518 1.286 27.416zm45.882-58.871-16.427-.43-.432-16.434 137.391-137.391 16.862 16.862zm11.503 29.255-.875-18.67 137.372-137.372 9.773 9.773zm171.775-171.774-14.899 14.899-57.62-57.62 14.899-14.899c25.765-25.765 69.553-7.14 69.553 28.81 0 10.883-4.238 21.115-11.933 28.81z"/><path d="m70.5 420.167c-4.142 0-7.5 3.358-7.5 7.5s3.358 7.5 7.5 7.5h67.5c4.142 0 7.5-3.358 7.5-7.5s-3.358-7.5-7.5-7.5z"/><path d="m157.167 378.482c0-4.142-3.358-7.5-7.5-7.5h-79.167c-4.142 0-7.5 3.358-7.5 7.5s3.358 7.5 7.5 7.5h79.167c4.142 0 7.5-3.357 7.5-7.5z"/><path d="m178 329.298c0-4.142-3.358-7.5-7.5-7.5h-100c-4.142 0-7.5 3.358-7.5 7.5s3.358 7.5 7.5 7.5h100c4.142 0 7.5-3.358 7.5-7.5z"/><path d="m213.667 280.114c0-4.142-3.358-7.5-7.5-7.5h-135.667c-4.142 0-7.5 3.358-7.5 7.5s3.358 7.5 7.5 7.5h135.667c4.142 0 7.5-3.358 7.5-7.5z"/><path d="m260.333 230.93c0-4.142-3.358-7.5-7.5-7.5h-182.333c-4.142 0-7.5 3.358-7.5 7.5s3.358 7.5 7.5 7.5h182.333c4.143 0 7.5-3.358 7.5-7.5z"/><path d="m291 181.746c0-4.142-3.358-7.5-7.5-7.5h-213c-4.142 0-7.5 3.358-7.5 7.5s3.358 7.5 7.5 7.5h213c4.142 0 7.5-3.358 7.5-7.5z"/><path d="m199.667 125.062h-129.167c-4.142 0-7.5 3.358-7.5 7.5s3.358 7.5 7.5 7.5h129.167c4.142 0 7.5-3.358 7.5-7.5s-3.358-7.5-7.5-7.5z"/><path d="m173.5 76.5h-103c-4.142 0-7.5 3.358-7.5 7.5s3.358 7.5 7.5 7.5h103c4.142 0 7.5-3.358 7.5-7.5s-3.358-7.5-7.5-7.5z"/></svg>