<svg height="496pt" viewBox="-80 0 496 496.024" width="496pt" xmlns="http://www.w3.org/2000/svg"><path d="m216.011719 216c0 4.417969-3.582031 8-8 8s-8-3.582031-8-8 3.582031-8 8-8 8 3.582031 8 8zm0 0"/><path d="m136.011719 216c0 4.417969-3.582031 8-8 8s-8-3.582031-8-8 3.582031-8 8-8 8 3.582031 8 8zm0 0"/><path d="m160.011719 192h16v16h-16zm0 0"/><path d="m336.011719 399.351562c0-20.917968-11.800781-39.527343-29.488281-49.121093-3.414063-4.460938-4.945313-6.671875-5.085938-6.894531-.769531-1.703126.414062-6.527344 1.269531-10.046876 1.464844-5.9375 3.113281-12.664062.882813-19.007812-2.234375-6.34375-7.746094-10.570312-12.59375-14.296875-2.871094-2.199219-6.808594-5.214844-7.273438-7.023437-.460937-1.792969 1.503906-6.335938 2.945313-9.664063 2.441406-5.617187 5.191406-11.984375 4.0625-18.617187-1.125-6.625-5.832031-11.703126-9.992188-16.191407-2.46875-2.664062-5.832031-6.304687-6-8.167969-.246093-2.976562.859375-6.128906 2.144531-9.777343.785157-2.238281 1.609376-4.664063 2.226563-7.269531.144531-.617188.253906-1.242188.367187-1.867188.304688-1.71875.535157-3.496094.535157-5.40625v-54.113281l10.457031-20.902344c3.625-7.257813 5.542969-15.382813 5.542969-23.496094 0-10.398437-3.046875-20.480469-8.824219-29.144531l-15.175781-22.769531-16.039063 24.050781c-6.753906-16.242188-18.992187-35.351562-41.046875-46.976562l-10.664062-42.648438h-72.496094l-10.65625 42.65625c-22.066406 11.632812-34.304687 30.769531-41.058594 47.078125l-16.039062-24.160156-15.175781 22.769531c-5.777344 8.65625-8.824219 18.734375-8.824219 29.144531 0 8.113281 1.921875 16.238281 5.542969 23.503907l10.457031 20.894531v54.113281c0 1.910156.230469 3.6875.542969 5.40625.113281.632812.21875 1.257812.371093 1.875.613281 2.605469 1.429688 5.03125 2.222657 7.269531 1.28125 3.65625 2.390624 6.808594 2.144531 9.785157-.167969 1.855468-3.527344 5.503906-6 8.160156-4.160157 4.488281-8.863281 9.574218-9.992188 16.191406-1.136719 6.632812 1.625 13 4.0625 18.617188 1.441407 3.320312 3.417969 7.863281 2.945313 9.664062s-4.402344 4.816406-7.273438 7.015625c-4.847656 3.726563-10.359375 7.953125-12.589844 14.304687-2.226562 6.335938-.578124 13.0625.878907 19 .855469 3.519532 2.039062 8.34375 1.433593 9.742188-.335937.59375-2.097656 3.097656-5.25 7.207031-17.695312 9.585938-29.4960932 28.195313-29.4960932 49.113281v96.648438h97.5117192c.074218 0 .152343.023438.222656.023438.097656 0 .195312-.023438.296875-.023438h159.480469c.074218 0 .152343.023438.222656.023438.097656 0 .195312-.023438.296875-.023438h77.96875zm-61.046875-131.976562c.328125 1.9375-1.503906 6.167969-2.976563 9.554688-2.625 6.054687-5.601562 12.917968-3.753906 20.039062 1.839844 7.128906 7.785156 11.679688 13.019531 15.703125 2.933594 2.25 6.582032 5.054687 7.238282 6.902344.648437 1.851562-.449219 6.3125-1.328126 9.898437-1.0625 4.367188-2.121093 9.121094-1.800781 13.832032l-69.351562-13.863282v-15.785156c22.398437-14.671875 37.496093-39.152344 39.695312-66.695312 1.386719-.34375 2.746094-.746094 4.050781-1.257813 1.742188 5.375 5.628907 9.761719 9.253907 13.664063 2.503906 2.703124 5.625 6.082031 5.953125 8.007812zm-194.953125-37.597656c-3.574219-2.089844-6.246094-5.488282-7.367188-9.570313-.375-1.4375-.632812-2.832031-.632812-4.207031 0-5.894531 3.242187-11 8-13.777344zm110.527343-117.777344c-2.414062-6.777344-7.75-12.113281-14.527343-14.527344v-17.472656h-16v17.472656c-6.777344 2.414063-12.113281 7.75-14.527344 14.527344h-9.0625c1.988281-21.816406 13.558594-41.945312 31.582031-54.480469 18.03125 12.535157 29.59375 32.664063 31.585938 54.480469zm-14.527343 8c0 4.40625-3.582031 8-8 8-4.414063 0-8-3.59375-8-8s3.585937-8 8-8c4.417969 0 8 3.59375 8 8zm57.921875-38.609375c7.519531 11.59375 11.152344 23.570313 12.796875 31.289063-2.199219-.375-4.421875-.679688-6.71875-.679688h-23.3125c1.648437-10.296875 6.425781-19.800781 13.9375-27.3125zm-14.609375-8.015625c-3.761719 3.761719-6.945313 7.9375-9.65625 12.367188-5.542969-14.09375-14.582031-26.671876-26.320313-36.476563 17.992188 2.789063 31.039063 10.351563 40.441406 19.644531zm-92.96875 12.359375c-2.703125-4.429687-5.886719-8.597656-9.65625-12.367187l-4.542969-4.542969c9.40625-9.273438 22.472656-16.808594 40.527344-19.585938-11.734375 9.808594-20.785156 22.402344-26.328125 36.496094zm-20.96875-1.046875c7.511719 7.511719 12.289062 17.015625 13.9375 27.3125h-23.3125c-2.320313 0-4.558594.304688-6.769531.6875 1.601562-7.679688 5.210937-19.726562 12.761718-31.375zm-33.375 67.3125c0-13.230469 10.769531-24 24-24h49.472656c3.3125 9.289062 12.113281 16 22.527344 16 10.417969 0 19.214843-6.710938 22.527343-16h49.472657c13.230469 0 24 10.769531 24 24v36.449219c-3.175781-1.855469-6.65625-3.21875-10.398438-3.890625-6.5625-20.589844-25.847656-35.550782-48.585937-35.550782-10.09375 0-19.871094 2.960938-28.28125 8.558594l-8.734375 5.832032-8.734375-5.824219c-8.410156-5.597657-18.183594-8.558594-28.28125-8.558594-22.726563 0-42.023438 14.960937-48.585938 35.550781-3.75.664063-7.222656 2.035156-10.398437 3.890625zm191.367187 68.207031c-1.117187 4.082031-3.789062 7.480469-7.367187 9.570313v-27.546875c4.761719 2.777343 8 7.882812 8 13.777343 0 1.367188-.253907 2.761719-.632813 4.199219zm-167.367187-20.207031c0-19.289062 15.695312-34.984375 34.984375-34.984375 6.929687 0 13.640625 2.03125 19.40625 5.871094l17.609375 11.746093 17.609375-11.738281c5.765625-3.839843 12.480468-5.871093 19.40625-5.871093 19.289062-.007813 34.984375 15.6875 34.984375 34.976562v40c0 29.359375-17.960938 55.382812-44.238281 66.398438l3.3125-26.488282c8.847656-4.734375 14.183593-9.855468 14.582031-10.253906l-11.3125-11.3125c-.144531.136719-13.886719 13.65625-34.34375 13.65625-20.207031 0-34.222657-13.542969-34.367188-13.679688l-11.289062 11.335938c.402343.398438 5.738281 5.519531 14.585937 10.253906l3.3125 26.488282c-26.28125-11.015626-44.242187-37.039063-44.242187-66.398438zm118.144531 204.792969c-.863281 8.621093 2.742188 17.199219 9.800781 22.453125.742188.554687 1.574219.859375 2.359375 1.3125-7.082031 1.839844-12.871094 6.867187-15.9375 13.714844-3.40625 2.917968-17.648437 13.726562-42.367187 13.726562s-38.960938-10.808594-42.359375-13.734375c-3.039063-6.800781-8.761719-11.777344-15.769532-13.648437.738282-.441407 1.488282-.847657 2.183594-1.371094 7.066406-5.253906 10.671875-13.832032 9.808594-22.453125 3.417969-3.921875 5.304688-8.816407 5.816406-13.929688 2.535156 1.207031 5.207032 2.304688 7.960938 3.320313l32.359375 43.152344 32.359375-43.152344c2.753906-1.015625 5.425781-2.113282 7.960937-3.320313.519531 5.105469 2.398438 10.007813 5.824219 13.929688zm-46.144531-31.457031 14 18.664062-14 18.664062-14-18.664062zm24.871093 6.496093-10.460937-13.953125c14.832031-4.398437 24.527344-14.734375 29.230469-20.992187l22.792968 4.5625c-7.511718 9.429687-21.464843 23.503906-41.5625 30.382812zm-10.710937-93.617187-4.113281 32.921875c-.628906 5.046875-4.949219 8.863281-10.046875 8.863281-5.097657 0-9.414063-3.816406-10.046875-8.863281l-4.113282-32.921875c4.402344 1.023437 9.054688 1.785156 14.160157 1.785156s9.761719-.761719 14.160156-1.785156zm-39.375 38.113281c2.917969 11.398437 13.183594 19.671875 25.214844 19.671875s22.296875-8.273438 25.214843-19.671875c2.304688-.6875 4.570313-1.480469 6.785157-2.34375v11.710937c-2.925781 4.335938-12.390625 16.351563-28.160157 18.089844l-3.839843-5.121094-3.695313 4.929688c-15.90625-1.730469-25.410156-13.601562-28.304687-17.929688v-11.6875c2.214843.871094 4.480469 1.664063 6.785156 2.351563zm-18.433594 20.558594c4.703125 6.257812 14.402344 16.59375 29.234375 20.992187l-10.464844 13.953125c-20.089843-6.878906-34.046874-20.953125-41.570312-30.390625zm-36.351562 23.113281c3.59375 0 6.777343 2.449219 7.914062 6.089844l1.765625 5.613281 5.886719-.015625h.027344c3.648437 0 6.847656 2.390625 7.984375 5.960938 1.167968 3.664062-.121094 7.65625-3.179688 9.917968l-4.597656 3.410156 1.742188 5.457032c1.183593 3.726562-.03125 7.734375-3.039063 9.972656-2.855469 2.144531-6.777344 2.121094-9.703125-.078125l-4.800781-3.601563-4.800781 3.601563c-2.933594 2.191406-6.832032 2.222656-9.710938.078125-3-2.230469-4.214844-6.238281-3.03125-9.972656l1.742188-5.457032-4.597657-3.410156c-3.066406-2.269531-4.34375-6.253906-3.175781-9.917968 1.132812-3.570313 4.335938-5.960938 7.984375-5.960938h.023437l5.886719.015625 1.769531-5.613281c1.132813-3.640625 4.320313-6.089844 7.910157-6.089844zm-15.589844 75.6875h.023437l5.886719.015625 1.769531-5.613281c1.132813-3.640625 4.320313-6.089844 7.910157-6.089844 3.59375 0 6.777343 2.449219 7.914062 6.089844l1.765625 5.613281 5.886719-.015625h.027344c3.648437 0 6.847656 2.390625 7.984375 5.960938 1.167968 3.664062-.121094 7.65625-3.179688 9.917968l-4.597656 3.410156 1.742188 5.457032c1.183593 3.726562-.03125 7.734375-3.039063 9.972656-2.855469 2.144531-6.777344 2.113281-9.703125-.078125l-4.800781-3.601563-4.800781 3.601563c-2.933594 2.191406-6.832032 2.222656-9.710938.078125-3-2.230469-4.214844-6.238281-3.03125-9.972656l1.742188-5.457032-4.597657-3.410156c-3.066406-2.269531-4.34375-6.253906-3.175781-9.917968 1.125-3.570313 4.335938-5.960938 7.984375-5.960938zm49.445313 25.105469c1.855468-2.121094 3.152343-4.585938 4.183593-7.160157 9.144531 5.039063 23.113281 10.367188 41.960938 10.367188 18.847656 0 32.816406-5.328125 41.960937-10.367188 1.03125 2.566407 2.328125 5.03125 4.183594 7.160157-.390625 3.855469.246094 7.664062 1.558594 11.207031h-95.398438c1.3125-3.542969 1.945313-7.351562 1.550782-11.207031zm146.542968-9.226563-4.597656 3.410156 1.742188 5.457032c1.183593 3.726562-.03125 7.734375-3.039063 9.972656-2.855469 2.144531-6.769531 2.113281-9.703125-.078125l-4.800781-3.601563-4.800781 3.601563c-2.925782 2.191406-6.832032 2.222656-9.710938.078125-3-2.230469-4.214844-6.238281-3.03125-9.972656l1.742188-5.457032-4.597657-3.410156c-3.066406-2.269531-4.34375-6.253906-3.175781-9.917968 1.132812-3.570313 4.335938-5.960938 7.984375-5.960938h.023437l5.886719.015625 1.769531-5.613281c1.132813-3.640625 4.320313-6.089844 7.910157-6.089844 3.59375 0 6.777343 2.449219 7.914062 6.089844l1.765625 5.613281 5.886719-.015625h.027344c3.648437 0 6.847656 2.390625 7.984375 5.960938 1.167968 3.664062-.113282 7.65625-3.179688 9.917968zm0-64-4.597656 3.410156 1.742188 5.457032c1.183593 3.726562-.03125 7.734375-3.039063 9.972656-2.855469 2.144531-6.769531 2.121094-9.703125-.078125l-4.800781-3.601563-4.800781 3.601563c-2.925782 2.191406-6.832032 2.222656-9.710938.078125-3-2.230469-4.214844-6.238281-3.03125-9.972656l1.742188-5.457032-4.597657-3.410156c-3.066406-2.269531-4.34375-6.253906-3.175781-9.917968 1.132812-3.570313 4.335938-5.960938 7.984375-5.960938h.023437l5.886719.015625 1.769531-5.613281c1.132813-3.640625 4.320313-6.089844 7.910157-6.089844 3.59375 0 6.777343 2.449219 7.914062 6.089844l1.765625 5.613281 5.886719-.015625h.027344c3.648437 0 6.847656 2.390625 7.984375 5.960938 1.167968 3.664062-.113282 7.65625-3.179688 9.917968zm3.601563-301.140625 1.863281 2.796875c4.007812 6.015625 6.136719 13.023438 6.136719 20.265625 0 5.648438-1.335938 11.296875-3.855469 16.34375l-.34375.679688c-2.761719-5.625-6.777344-10.480469-11.71875-14.238281l-.113281-.945313c-.015625-.183594-.402344-4.128906-1.785157-10.199219zm-127.75-78.425781h47.503906l4.894531 19.566406c-8.464844-2.261718-17.953125-3.566406-28.648437-3.566406-10.695313 0-20.183594 1.304688-28.648438 3.566406zm-82.113281 81.214844 1.863281-2.800782 9.183593 13.777344.640626 1.039063c-1.40625 6.203125-1.808594 10.273437-1.824219 10.554687l-.007813.429688c-4.976562 3.769531-9.015625 8.640625-11.792968 14.296875l-.34375-.679688c-2.519532-5.046875-3.855469-10.703125-3.855469-16.34375 0-7.242187 2.128906-14.25 6.136719-20.273437zm-14.625 222.378906c.65625-1.859375 4.304687-4.664062 7.242187-6.914062 5.230469-4.015626 11.167969-8.574219 13.015625-15.695313 1.847656-7.128906-1.128906-13.992187-3.753906-20.046875-1.480469-3.394531-3.304688-7.617188-2.976563-9.5625.328125-1.925781 3.457031-5.296875 5.960938-8 3.625-3.902344 7.511719-8.285156 9.257812-13.664062 1.300781.519531 2.664063.914062 4.046875 1.257812 2.191406 27.550781 17.296875 52.023438 39.695313 66.695312v15.785157l-69.351563 13.871093c.3125-4.710937-.734375-9.472656-1.808594-13.832031-.878906-3.601562-1.976562-8.054687-1.328124-9.894531zm-31.511719 79.757812c0-19 13.519531-35.503906 32.160156-39.222656l30.914063-6.183594c-5 2.03125-9.320313 5.535157-12.074219 10.351563-8.304688 1.886719-15.144531 8.046875-17.832031 16.519531-2.671876 8.441406-.671876 17.511719 4.96875 23.976563-.863282 8.621093 2.742187 17.199219 9.800781 22.453125.742187.554687 1.574219.859375 2.359375 1.3125-7.96875 2.074218-14.519532 8.042968-17.128906 16.257812-2.671876 8.441406-.671876 17.511719 4.96875 23.976563-.390626 3.855469.246093 7.664062 1.558593 11.207031h-39.695312zm304 80.648438h-39.695313c1.3125-3.542969 1.945313-7.351562 1.558594-11.207031 5.640625-6.464844 7.640625-15.535157 4.96875-23.976563-2.589844-8.160156-9.0625-14.082031-16.960938-16.199218.738282-.441407 1.488282-.847657 2.183594-1.371094 7.066406-5.253906 10.671875-13.832032 9.808594-22.453125 5.640625-6.464844 7.640625-15.535157 4.96875-23.976563-2.6875-8.472656-9.519531-14.632812-17.832031-16.519531-2.75-4.816406-7.070313-8.320313-12.070313-10.351563l30.910156 6.183594c18.640626 3.71875 32.160157 20.222656 32.160157 39.222656zm0 0"/><path d="m240.011719 384h16v16h-16zm0 0"/><path d="m240.011719 448h16v16h-16zm0 0"/><path d="m80.011719 384h16v16h-16zm0 0"/><path d="m80.011719 448h16v16h-16zm0 0"/></svg>