<svg height="512pt" viewBox="0 -83 512 512" width="512pt" xmlns="http://www.w3.org/2000/svg"><g fill="#231f20"><path d="m279.195312 149.136719c-4.726562 1.054687-8.027343 5.183593-8.027343 10.039062v11.933594c0 2.566406 1.007812 4.976563 2.835937 6.78125 1.804688 1.785156 4.183594 2.765625 6.707032 2.765625h.105468c28.535156-.292969 51.558594-6.445312 68.4375-18.28125 17.277344-12.117188 27.589844-32.34375 27.589844-54.109375v-93.78125c0-7.984375-6.5-14.484375-14.484375-14.484375h-76.703125c-7.988281 0-14.488281 6.5-14.488281 14.484375v68.71875c0 7.988281 6.5 14.488281 14.488281 14.488281h45.390625v16.449219c0 22.710937-46.546875 33.804687-51.851563 34.996094zm52.367188-66.445313h-45.394531v-67.691406h75.675781v93.261719c0 16.882812-7.925781 32.519531-21.199219 41.832031-13.300781 9.328125-31.609375 14.507812-54.476562 15.425781v-2.625c17.941406-4.496093 59.878906-18.28125 59.878906-48.753906v-16.964844c0-7.988281-6.496094-14.484375-14.484375-14.484375zm0 0"/><path d="m14.484375 346.3125h76.703125c7.988281 0 14.484375-6.5 14.484375-14.488281v-68.71875c0-7.988281-6.496094-14.484375-14.484375-14.484375h-45.394531v-16.453125c0-22.707031 46.550781-33.804688 51.855469-34.992188 4.726562-1.058593 8.027343-5.1875 8.027343-10.039062v-11.933594c0-2.566406-1.007812-4.976563-2.835937-6.785156-1.828125-1.808594-4.210938-2.804688-6.8125-2.761719-28.535156.292969-51.558594 6.441406-68.4375 18.28125-17.277344 12.113281-27.589844 32.34375-27.589844 54.109375v93.777344c0 7.988281 6.5 14.488281 14.484375 14.488281zm.515625-108.265625c0-16.882813 7.925781-32.519531 21.199219-41.828125 13.300781-9.332031 31.605469-14.511719 54.476562-15.425781v2.621093c-17.941406 4.496094-59.882812 18.28125-59.882812 48.753907v16.964843c0 7.988282 6.5 14.484376 14.488281 14.484376h45.394531v67.691406h-75.675781zm0 0"/><path d="m232.804688 197.175781c4.726562-1.058593 8.027343-5.1875 8.027343-10.039062v-11.933594c0-2.566406-1.007812-4.976563-2.835937-6.785156-1.828125-1.808594-4.207032-2.804688-6.8125-2.761719-28.535156.292969-51.5625 6.441406-68.4375 18.28125-17.273438 12.113281-27.589844 32.339844-27.589844 54.109375v93.777344c0 7.988281 6.5 14.488281 14.488281 14.488281h20.851563c4.140625 0 7.5-3.359375 7.5-7.5 0-4.144531-3.359375-7.5-7.5-7.5h-20.339844v-93.265625c0-16.882813 7.925781-32.519531 21.203125-41.828125 13.300781-9.328125 31.601563-14.511719 54.472656-15.425781v2.625c-17.941406 4.492187-59.878906 18.277343-59.878906 48.75v16.964843c0 7.988282 6.496094 14.488282 14.484375 14.488282h45.394531v67.691406h-20.335937c-4.144532 0-7.5 3.355469-7.5 7.5 0 4.140625 3.355468 7.5 7.5 7.5h20.851562c7.988282 0 14.484375-6.5 14.484375-14.488281v-68.71875c0-7.988281-6.496093-14.484375-14.484375-14.484375h-45.394531v-16.453125c0-22.707031 46.546875-33.804688 51.851563-34.992188zm0 0"/><path d="m497.515625 0h-76.703125c-7.988281 0-14.484375 6.5-14.484375 14.484375v68.71875c0 7.988281 6.496094 14.488281 14.484375 14.488281h45.394531v16.449219c0 22.710937-46.546875 33.804687-51.855469 34.996094-4.726562 1.058593-8.023437 5.1875-8.023437 10.039062v11.933594c0 2.566406 1.003906 4.976563 2.832031 6.785156 1.804688 1.785157 4.183594 2.761719 6.710938 2.761719h.101562c28.535156-.292969 51.5625-6.441406 68.441406-18.28125 17.273438-12.117188 27.585938-32.34375 27.585938-54.109375v-40.144531c0-4.140625-3.355469-7.5-7.5-7.5s-7.5 3.359375-7.5 7.5v40.144531c0 16.882813-7.925781 32.519531-21.199219 41.828125-13.300781 9.328125-31.605469 14.511719-54.476562 15.425781v-2.625c17.941406-4.492187 59.882812-18.277343 59.882812-48.75v-16.96875c0-7.984375-6.5-14.484375-14.488281-14.484375h-45.394531v-67.691406h75.675781v18.117188c0 4.144531 3.355469 7.5 7.5 7.5s7.5-3.355469 7.5-7.5v-18.632813c0-7.988281-6.496094-14.484375-14.484375-14.484375zm0 0"/></g></svg>