<svg height="511pt" viewBox="1 -16 511.999 511" width="511pt" xmlns="http://www.w3.org/2000/svg"><path d="m92.308594 52.730469c0-13.871094-11.28125-25.152344-25.152344-25.152344s-25.15625 11.28125-25.15625 25.152344c0 13.871093 11.285156 25.152343 25.15625 25.152343 13.867188 0 25.152344-11.28125 25.152344-25.152343zm-35.308594 0c0-5.597657 4.558594-10.152344 10.15625-10.152344s10.152344 4.554687 10.152344 10.152344c0 5.597656-4.554688 10.152343-10.152344 10.152343s-10.15625-4.554687-10.15625-10.152343zm0 0"/><path d="m126.914062 77.882812c13.871094 0 25.15625-11.28125 25.15625-25.152343 0-13.871094-11.285156-25.152344-25.15625-25.152344-13.871093 0-25.152343 11.28125-25.152343 25.152344 0 13.871093 11.28125 25.152343 25.152343 25.152343zm0-35.304687c5.601563 0 10.15625 4.554687 10.15625 10.152344 0 5.597656-4.558593 10.152343-10.15625 10.152343-5.597656 0-10.152343-4.554687-10.152343-10.152343 0-5.597657 4.554687-10.152344 10.152343-10.152344zm0 0"/><path d="m186.675781 77.882812c13.867188 0 25.152344-11.28125 25.152344-25.152343 0-13.871094-11.285156-25.152344-25.152344-25.152344-13.871093 0-25.15625 11.28125-25.15625 25.152344 0 13.871093 11.285157 25.152343 25.15625 25.152343zm0-35.304687c5.597657 0 10.152344 4.554687 10.152344 10.152344 0 5.597656-4.554687 10.152343-10.152344 10.152343-5.601562 0-10.15625-4.554687-10.15625-10.152343 0-5.597657 4.554688-10.152344 10.15625-10.152344zm0 0"/><path d="m269.667969 60.230469h182.664062c4.144531 0 7.5-3.355469 7.5-7.5s-3.355469-7.5-7.5-7.5h-182.664062c-4.144531 0-7.5 3.355469-7.5 7.5s3.355469 7.5 7.5 7.5zm0 0"/><path d="m480.683594.5h-449.367188c-17.265625 0-31.316406 14.046875-31.316406 31.316406v417.25c0 17.265625 14.050781 31.316406 31.316406 31.316406h449.367188c17.265625 0 31.316406-14.050781 31.316406-31.316406v-417.25c0-17.269531-14.050781-31.316406-31.316406-31.316406zm0 464.882812h-449.367188c-8.996094 0-16.316406-7.320312-16.316406-16.316406v-344.105468h41.808594c4.144531 0 7.5-3.355469 7.5-7.5 0-4.140626-3.355469-7.5-7.5-7.5h-41.808594v-58.144532c0-8.996094 7.320312-16.316406 16.316406-16.316406h449.367188c8.996094 0 16.316406 7.320312 16.316406 16.316406v58.144532h-412.191406c-4.140625 0-7.5 3.359374-7.5 7.5 0 4.144531 3.359375 7.5 7.5 7.5h412.191406v344.105468c0 8.996094-7.320312 16.316406-16.316406 16.316406zm0 0"/><path d="m424.402344 123.660156h-65.546875c-13.09375 0-23.746094 10.652344-23.746094 23.746094v9.074219c-7.691406 2.441406-13.773437 8.527343-16.207031 16.222656l-117.144532.441406c-2.441406-7.671875-8.515624-13.738281-16.191406-16.175781v-9.070312c0-13.09375-10.652344-23.746094-23.746094-23.746094h-65.542968c-13.09375 0-23.746094 10.652344-23.746094 23.746094v65.542968c0 13.09375 10.652344 23.742188 23.746094 23.742188h9.070312c2.4375 7.6875 8.515625 13.765625 16.203125 16.203125v30.644531c0 15.8125 12.863281 28.675781 28.675781 28.675781h70.648438c2.4375 7.683594 8.515625 13.761719 16.199219 16.199219v9.589844c0 12.808594 10.421875 23.230468 23.230469 23.230468h10.160156c2.15625 7.515626 7.773437 13.578126 15.007812 16.355469-2.15625 4.296875-6.601562 7.25-11.722656 7.25h-80.109375c-1.941406-8.644531-8.398437-15.597656-16.75-18.25v-9.074219c0-13.09375-10.652344-23.746093-23.746094-23.746093h-65.546875c-13.089844 0-23.742187 10.652343-23.742187 23.746093v65.546876c0 13.09375 10.652343 23.742187 23.742187 23.742187h65.546875c13.09375 0 23.746094-10.648437 23.746094-23.742187v-9.074219c6.984375-2.21875 12.644531-7.441407 15.445313-14.148438h81.414062c13.234375 0 24.363281-9.195312 27.332031-21.53125 8.265625-2.324219 14.800781-8.828125 17.171875-17.074219h8.625c12.8125 0 23.230469-10.421874 23.230469-23.230468v-19.730469c0-4.144531-3.355469-7.5-7.5-7.5-4.140625 0-7.5 3.355469-7.5 7.5v19.730469c0 4.539062-3.691406 8.230468-8.230469 8.230468h-9.035156c-7.796875-22.375-39.273438-22.199218-46.972656 0h-10.566406c-4.539063 0-8.230469-3.691406-8.230469-8.230468v-9.589844c1.601562-.507812 3.113281-1.160156 4.589843-1.984375.105469-.105469 12.765626-6.5 12.765626-21.714844 0-10.777343-6.984376-20.390625-17.355469-23.699219v-9.585937c0-4.539063 3.691406-8.230469 8.230469-8.230469h66.574218c4.539063 0 8.230469 3.691406 8.230469 8.230469v19.730469c0 4.140625 3.359375 7.5 7.5 7.5 4.144531 0 7.5-3.359375 7.5-7.5v-19.730469c0-12.808594-10.421875-23.230469-23.230469-23.230469h-66.574218c-12.808594 0-23.230469 10.421875-23.230469 23.230469v9.585937c-7.683594 2.4375-13.761719 8.515626-16.199219 16.199219h-70.644531c-7.542969 0-13.679688-6.136719-13.679688-13.675781v-30.644531c7.683594-2.4375 13.761719-8.515625 16.199219-16.203125h9.074219c13.089843 0 23.742187-10.648438 23.742187-23.742188v-9.074218c7.695313-2.441407 13.777344-8.527344 16.207032-16.222657l117.144531-.441406c2.441406 7.671875 8.515625 13.742187 16.191406 16.175781v9.074219c0 13.09375 10.652344 23.746094 23.746094 23.746094h65.546875c13.089844 0 23.742187-10.652344 23.742187-23.746094v-65.546875c0-13.09375-10.652343-23.746094-23.742187-23.746094zm-255.011719 276.976563c-5.4375 0-9.855469-4.421875-9.855469-9.855469s4.421875-9.855469 9.855469-9.855469 9.855469 4.421875 9.855469 9.855469-4.421875 9.855469-9.855469 9.855469zm-7.5 22.917969c0 4.820312-3.921875 8.742187-8.746094 8.742187h-65.546875c-4.820312 0-8.742187-3.921875-8.742187-8.742187v-65.546876c0-4.824218 3.921875-8.746093 8.742187-8.746093h65.546875c4.824219 0 8.746094 3.921875 8.746094 8.746093v9.074219c-23.257813 7.410157-22.988281 40.070313 0 47.398438zm142.320313-68.640626c-.023438 5.414063-4.433594 9.808594-9.855469 9.808594-5.417969 0-9.828125-4.394531-9.851563-9.808594 1.234375-13.535156 18.523438-12.964843 19.707032 0zm-58.140626-59.449218c4.726563.726562 8.359376 4.820312 8.359376 9.742187 0 5.445313-4.429688 9.855469-9.855469 9.855469-5.4375 0-9.855469-4.421875-9.855469-9.855469 0-6.011719 5.371094-10.65625 11.351562-9.742187zm-68.003906-104.941406c-5.433594 0-9.855468-4.421876-9.855468-9.855469 0-5.433594 4.421874-9.855469 9.855468-9.855469s9.855469 4.421875 9.855469 9.855469c0 5.433593-4.417969 9.855469-9.855469 9.855469zm-49.015625 49.019531c-5.976562 0-10.664062-5.332031-9.742187-11.355469.722656-4.726562 4.816406-8.355469 9.742187-8.355469 5.429688 0 9.855469 4.414063 9.855469 9.851563s-4.421875 9.859375-9.855469 9.859375zm41.515625-26.101563c0 4.820313-3.921875 8.742188-8.746094 8.742188h-9.070312c-3.898438-12.175782-16.285156-19.382813-28.683594-16.851563-.105468.054688-14.050781 2.269531-18.714844 16.851563h-9.074218c-4.824219 0-8.746094-3.921875-8.746094-8.742188v-65.546875c0-4.820312 3.921875-8.746093 8.746094-8.746093h65.546875c4.820312 0 8.742187 3.925781 8.742187 8.746093v9.074219c-10.519531 3.351562-17.890625 13.394531-17.324218 24.953125.042968.101563.148437 16.96875 17.324218 22.445313zm172.042969-43.117187c5.421875 0 9.855469 4.410156 9.855469 9.855469 0 5.453124-4.441406 9.855468-9.855469 9.855468-5.433594 0-9.855469-4.421875-9.855469-9.855468 0-5.433594 4.421875-9.855469 9.855469-9.855469zm90.535156 42.628906c0 4.820313-3.921875 8.746094-8.742187 8.746094h-65.546875c-4.824219 0-8.746094-3.925781-8.746094-8.746094v-9.074219c10.71875-3.414062 17.902344-13.601562 17.324219-24.972656v-.003906c-.519532-10.3125-7.441406-19.273438-17.324219-22.421875v-9.074219c0-4.820312 3.921875-8.742188 8.746094-8.742188h65.546875c4.820312 0 8.742187 3.921876 8.742187 8.742188zm0 0"/></svg>